<svg xmlns="http://www.w3.org/2000/svg" viewBox="0 0 572.22 276.75"><defs><style>.cls-1{fill:#231f20;}.cls-2{fill:#fff;}</style></defs><g id="Layer_3" data-name="Layer 3"><path class="cls-1" d="M164.54,121.6c-.49,15.11-9.77,32.11-29,33.56-7.29.59-15.74.88-25,.88-1.66,0-3-.15-4.48-.15-6.79.58-9.28,4.8-9.28,8.72,0,8.86-.16,21.07-.49,24.27-1,7.26-8.12,11.18-14.26,11.18-6,0-13.09-3.34-14.25-10.46-1-5.08-.5-53.62-.33-76.87V102.56c0-8.28,5.14-13.37,14.25-14.24,2-.14,5.47-.29,10.11-.29,9.94,0,25.52.44,42.76,1.31A31.5,31.5,0,0,1,164.54,121.6Zm-63.3,10.75,2.48.15h8.79c6.63,0,11.6-.15,14.58-.29,6.46-.44,9.78-4.07,10.28-11.48.33-4.51-2.16-9.16-7.63-9.59-6.13-.44-25.19-.73-28.34-.73-2.15,0-3.48.73-3.48,4.07,0,.72,0,2.47-.16,4.36-.17,3.77-.33,9-.17,11.19S98.59,132.35,101.24,132.35Z"/><path class="cls-1" d="M377.67,121.6c-.5,15.11-9.78,32.11-29,33.56-7.29.59-15.74.88-25,.88-1.65,0-3-.15-4.47-.15-6.79.58-9.28,4.8-9.28,8.72,0,8.86-.17,21.07-.5,24.27-1,7.26-8.12,11.18-14.25,11.18-6,0-13.09-3.34-14.25-10.46-1-5.08-.5-53.62-.33-76.87V102.56c0-8.28,5.13-13.37,14.25-14.24,2-.14,5.47-.29,10.11-.29,9.94,0,25.52.44,42.75,1.31A31.5,31.5,0,0,1,377.67,121.6Zm-63.31,10.75,2.49.15h8.78c6.63,0,11.6-.15,14.59-.29,6.46-.44,9.77-4.07,10.27-11.48.33-4.51-2.15-9.16-7.62-9.59-6.13-.44-25.19-.73-28.34-.73-2.15,0-3.48.73-3.48,4.07,0,.72,0,2.47-.17,4.36-.16,3.77-.33,9-.16,11.19S311.71,132.35,314.36,132.35Z"/><path class="cls-1" d="M471.47,121.6c-.49,15.11-9.78,32.11-29,33.56-7.29.59-15.74.88-25,.88-1.66,0-3-.15-4.48-.15-6.79.58-9.28,4.8-9.28,8.72,0,8.86-.17,21.07-.5,24.27-1,7.26-8.12,11.18-14.25,11.18-6,0-13.09-3.34-14.25-10.46-1-5.08-.5-53.62-.33-76.87V102.56c0-8.28,5.13-13.37,14.25-14.24,2-.14,5.47-.29,10.11-.29,9.94,0,25.52.44,42.76,1.31A31.5,31.5,0,0,1,471.47,121.6Zm-63.31,10.75,2.49.15h8.78c6.63,0,11.6-.15,14.59-.29,6.46-.44,9.78-4.07,10.27-11.48.33-4.51-2.15-9.16-7.62-9.59-6.13-.44-25.19-.73-28.34-.73-2.15,0-3.48.73-3.48,4.07,0,.72,0,2.47-.17,4.36-.16,3.77-.33,9-.16,11.19S405.51,132.35,408.16,132.35Z"/><path class="cls-1" d="M497.16,182.77c-.33,8.43-2.82,13.81-13.75,14.39a1.76,1.76,0,0,1-.83.14c-9.78,0-13.59-8.42-13.92-16.13-.5-9.88-2.16-69.74-1-77.45,1-7.55,8.12-11.62,14.75-11.62A15.11,15.11,0,0,1,492.35,96a11.68,11.68,0,0,1,3.82,9.16c-.17,3.92.16,22.23.49,39.81S497.33,179.43,497.16,182.77Z"/></g><g id="Layer_5" data-name="Layer 5"><path class="cls-1" d="M213.3,112.92c.34-21.39,19.87-33.37,39.56-30,27.71,4.64,55.75,48.85-3.9,107.21a19.39,19.39,0,0,1-16,5.54c-83-9-88.24-61.12-69.32-81.89C177.05,99,199.23,96.38,213.3,112.92Z"/></g><g id="Layer_4" data-name="Layer 4"><path class="cls-2" d="M181.17,150.36c-.88,1.6-3.11,5.47-5,6.65a3.26,3.26,0,0,1-1.73.5,3.14,3.14,0,0,1-2.19-1c-1.14-1.06-1.6-3.37-.25-5.61.34-.54.67-1.22,1.05-1.93a27.5,27.5,0,0,1,2.4-4q2.34-2.85,5.18-1.14C182.69,145.17,182.35,148.17,181.17,150.36Zm26.49-18.75c-.17,1.44-2.27,3.58-5.09,3.37a.53.53,0,0,0-.34.8,4.14,4.14,0,0,1,.34,1.81c0,1.6-1.9,3.08-4.13,3.08-.17,0-1.43,0-3.24,0a2.58,2.58,0,0,0-2.83,2.49c0,6.31-.12,12.84-.12,13.85-.13,2.28-.59,3.79-3.24,4-2.49.21-3.46-2.19-3.58-4.38-.05-1.35-.05-7.41,0-13.43a2.18,2.18,0,0,0-2.11-2.36c-2.11,0-3.58,0-3.62,0-2.44-.13-3.92-1-4.21-3.16a3.35,3.35,0,0,1,.84-2.69,4.27,4.27,0,0,1,3.24-1.39h.21c.42,0,1.52,0,2.91,0,3.11,0,2.95-2.74,3-3.16a3.62,3.62,0,0,1,3.49-3.25,3.44,3.44,0,0,1,3.33,3.54,2.47,2.47,0,0,0,2.82,2.7c1.14-.05,2.07-.05,2.74-.05s.72-.58.51-1a6.16,6.16,0,0,1-.64-3.2c.17-2.87,4.17-5.52,7-3.54A5.79,5.79,0,0,1,207.66,131.61Zm-1.47,22.2a3.06,3.06,0,0,1-2.19,3.11,2.9,2.9,0,0,1-1.05.22,4.26,4.26,0,0,1-3.29-2.07c-1-1.39-3-4.76-3.71-6.19-1-2-.67-3.58,1-4.72a2.77,2.77,0,0,1,1.61-.5,5.23,5.23,0,0,1,3.91,2.4C203.79,147.91,206,152.17,206.19,153.81ZM204,130a1.16,1.16,0,0,0-1.81-.84,1.08,1.08,0,0,0,.21,2C203.41,131.36,204.21,131,204,130Z"/><path class="cls-2" d="M214.65,147.83a2.35,2.35,0,0,1-.92.17,3.16,3.16,0,0,1-2.7-1.52,26.55,26.55,0,0,1-1.64-4.42,2.74,2.74,0,0,1,.21-2.19,2.5,2.5,0,0,1,1.68-1.14,5.1,5.1,0,0,1,.72-.08c1.47,0,2.15,1.13,2.61,2.1a17.91,17.91,0,0,1,1.52,4.51A2.15,2.15,0,0,1,214.65,147.83Zm16.3-3.08c-.71,2.36-3.58,10.32-11,14.15a4.45,4.45,0,0,1-2.06.55,2.88,2.88,0,0,1-2.36-1.22,2.47,2.47,0,0,1-.47-1.89,4.26,4.26,0,0,1,2.07-2.62l.29-.16c2.45-1.6,5.81-3.75,8.13-10.28.63-1.85,1.52-3.58,3.37-3.58a2.74,2.74,0,0,1,.55,0,2.1,2.1,0,0,1,1.51,1C231.5,141.55,231.5,142.9,231,144.75Zm-15-3.66a2.77,2.77,0,0,1,.17-2.19,2.52,2.52,0,0,1,1.72-1.1,2.37,2.37,0,0,1,.72-.08,2.83,2.83,0,0,1,2.57,2.06,17,17,0,0,1,1.56,4.51,2.13,2.13,0,0,1-1.48,2.57,2.18,2.18,0,0,1-.92.17,3.14,3.14,0,0,1-2.7-1.52A23.42,23.42,0,0,1,216,141.09Z"/><path class="cls-2" d="M270.16,131.57C270,133,267.84,135.15,265,135c-.59,0-.59.38-.5.72.42,2.19-.47,3.66-3.92,5-3.29,1.26-7.2,2.27-10.91,3.37a2.87,2.87,0,0,0-2.36,2.74c.17,2.86.55,5.18,5.31,5.47a69.11,69.11,0,0,0,8.09-.08,3.81,3.81,0,0,1,3.74,3.62,4,4,0,0,1-4.21,3.79c-3.66,0-9.89.72-13-.42a10.47,10.47,0,0,1-7.16-8.72c-.47-4.29-.38-14.06-.42-16.55-.13-3.07,1.51-5.73,4.38-5.43s3.28,3.49,3.24,5.89c0,.64,0,2.87,2.48,2.07,3.54-1.1,8.09-2.4,9.44-2.87.42-.12.84-.21,1.26-.29a.69.69,0,0,0,.51-1.1,6.88,6.88,0,0,1-.51-3c.17-2.82,4.21-5.51,7-3.49A5.73,5.73,0,0,1,270.16,131.57Zm-3.66-1.64a1.14,1.14,0,0,0-1.82-.8,1.09,1.09,0,0,0,.22,2C265.91,131.32,266.71,130.94,266.5,129.93Z"/></g><g id="Layer_6" data-name="Layer 6"><path class="cls-1" d="M517.23,63.71a1.4,1.4,0,0,1-1.46,1.35c-.25,0-1,0-1.92,0a1.14,1.14,0,0,0-1.31,1.23c0,2.73,0,8.41,0,9.1,0,1-.25,1.69-1.44,1.75s-1.52-1-1.56-2-.06-6.12,0-8.83c0-.52-.06-1.2-1.08-1.21h-2.17c-1,0-1.62-.25-1.77-1.34s.92-1.6,1.85-1.64,8.69,0,9.6.08A1.46,1.46,0,0,1,517.23,63.71Z"/><path class="cls-1" d="M532.78,75.41a1.47,1.47,0,0,1-1.42,1.44,1.52,1.52,0,0,1-1.64-1.44c0-.54-.11-3.29-.19-5.23,0,0,.08-1.64-.67-.5-.56.82-1.2,1.75-1.41,2a1.79,1.79,0,0,1-1.31.61,2,2,0,0,1-1.42-.71c-.43-.48-1-1.21-1.54-1.83-.23-.28-.64-.59-.62.37,0,1.85,0,4.77,0,5.23a1.65,1.65,0,0,1-1.57,1.6l-.1,0c-.5,0-1.37-.21-1.52-1.56-.1-.9,0-5.91,0-8.58v-.08c0-.84,0-1.44,0-1.67,0-1.21.4-1.92,1.25-2.21a1.78,1.78,0,0,1,.44-.06c.77,0,1.39.65,2.08,1.46s1.65,2.27,2.35,3.27a.59.59,0,0,0,1.07,0,37.58,37.58,0,0,1,2.95-4.34A2.32,2.32,0,0,1,531,62.6a1.5,1.5,0,0,1,1,.32,2.61,2.61,0,0,1,.81,2.33c0,.23,0,1,0,2.08v.06C532.78,70.18,532.82,74.85,532.78,75.41Z"/></g></svg>